# Blender v2.78 (sub 0) OBJ File: '18.blend'
# www.blender.org
mtllib Cucumber_01.mtl
o Cucumber_Circle.016
v 1.594420 3.864119 2.521423
v 0.275062 3.317622 2.521423
v -0.271435 1.998264 2.521423
v 0.275062 0.678905 2.521423
v 1.594420 0.132409 2.521423
v 2.913779 0.678905 2.521423
v 3.460275 1.998264 2.521423
v 2.913779 3.317622 2.521423
v 1.789986 3.864119 -2.507427
v 0.484844 3.317622 -2.700586
v -0.055764 1.998264 -2.780595
v 0.484844 0.678905 -2.700586
v 1.789987 0.132409 -2.507427
v 3.095129 0.678905 -2.314268
v 3.635736 1.998264 -2.234259
v 3.095129 3.317622 -2.314268
v 2.441367 3.770300 -6.671610
v 1.201850 3.251283 -6.855058
v 0.688424 1.998264 -6.931042
v 1.201850 0.745245 -6.855057
v 2.441367 0.226228 -6.671610
v 3.680885 0.745245 -6.488164
v 4.194309 1.998264 -6.412179
v 3.680885 3.251283 -6.488164
v 2.907509 3.096335 -8.569986
v 2.139421 2.774717 -8.683661
v 1.821269 1.998264 -8.730747
v 2.139421 1.221810 -8.683661
v 2.907509 0.900193 -8.569986
v 3.675596 1.221810 -8.456311
v 3.993748 1.998264 -8.409225
v 3.675596 2.774717 -8.456311
v 3.214827 2.352750 -9.016995
v 2.976126 2.248924 -9.093495
v 2.877254 1.998264 -9.125183
v 2.976126 1.747604 -9.093495
v 3.214827 1.643778 -9.016995
v 3.453527 1.747604 -8.940495
v 3.552400 1.998264 -8.908809
v 3.453527 2.248923 -8.940495
v 3.269406 1.998264 -9.102762
v 1.594420 3.119886 2.521423
v 0.801313 2.791370 2.521423
v 0.472798 1.998264 2.521423
v 0.801313 1.205157 2.521423
v 1.594420 0.876641 2.521423
v 2.387527 1.205157 2.521423
v 2.716043 1.998264 2.521423
v 2.387527 2.791370 2.521423
v 1.594420 1.998264 2.521423
v 1.594420 0.598325 6.455201
v 0.275062 0.598325 5.908704
v -0.271435 0.598326 4.589345
v 0.275062 0.598326 3.269987
v 1.594420 0.598326 2.723491
v 2.913779 0.598326 3.269988
v 3.460275 0.598326 4.589345
v 2.913779 0.598325 5.908704
v 1.594420 0.598326 5.710968
v 0.801313 0.598325 5.382453
v 0.472798 0.598326 4.589345
v 0.801313 0.598326 3.796239
v 1.594420 0.598326 3.467723
v 2.387527 0.598326 3.796239
v 2.716043 0.598326 4.589345
v 2.387527 0.598325 5.382452
v 1.594420 0.598326 4.589345
v 0.275062 0.152745 5.908704
v 1.594420 0.152745 6.455201
v -0.271435 0.152745 4.589345
v 0.275062 0.152745 3.269987
v 1.594420 0.152745 2.723491
v 2.913779 0.152745 3.269988
v 3.460275 0.152745 4.589345
v 2.913779 0.152745 5.908704
v 0.801313 0.152745 5.382453
v 1.594420 0.152745 5.710968
v 0.472798 0.152745 4.589345
v 0.801313 0.152745 3.796239
v 1.594420 0.152745 3.467723
v 2.387527 0.152745 3.796239
v 2.716043 0.152745 4.589345
v 2.387527 0.152745 5.382452
v 1.594420 0.152745 4.589345
v 1.594420 0.601779 8.837488
v 0.275062 0.708613 8.301536
v -0.271435 0.966535 7.007634
v 0.275062 1.224456 5.713731
v 1.594420 1.331290 5.177779
v 2.913779 1.224456 5.713732
v 3.460275 0.966535 7.007634
v 2.913779 0.708613 8.301536
v 1.594420 0.747269 8.107615
v 0.801313 0.811490 7.785439
v 0.472798 0.966535 7.007634
v 0.801313 1.121579 6.229830
v 1.594420 1.185801 5.907652
v 2.387527 1.121579 6.229830
v 2.716043 0.966535 7.007634
v 2.387527 0.811490 7.785439
v 1.594420 0.966535 7.007634
v 0.275062 0.271630 8.214431
v 1.594420 0.164795 8.750382
v -0.271435 0.529551 6.920527
v 0.275062 0.787472 5.626625
v 1.594420 0.894307 5.090673
v 2.913779 0.787472 5.626625
v 3.460275 0.529551 6.920527
v 2.913779 0.271630 8.214430
v 0.801313 0.374507 7.698332
v 1.594420 0.310286 8.020509
v 0.472798 0.529551 6.920527
v 0.801313 0.684596 6.142723
v 1.594420 0.748817 5.820546
v 2.387527 0.684596 6.142723
v 2.716043 0.529551 6.920527
v 2.387527 0.374507 7.698332
v 1.594420 0.529551 6.920527
v 6.701706 0.570039 8.388174
v 5.382348 0.571505 7.841680
v 4.835852 0.575043 6.522326
v 5.382348 0.578582 5.202971
v 6.701706 0.580048 4.656477
v 8.021065 0.578582 5.202972
v 8.567561 0.575043 6.522326
v 8.021065 0.571505 7.841680
v 6.701706 0.572035 7.643946
v 5.908600 0.572916 7.315431
v 5.580084 0.575043 6.522326
v 5.908600 0.577171 5.729222
v 6.701706 0.578052 5.400707
v 7.494813 0.577171 5.729222
v 7.823329 0.575043 6.522326
v 7.494813 0.572916 7.315431
v 6.701706 0.575043 6.522326
v 5.382348 0.125925 7.840486
v 6.701706 0.124460 8.386979
v 4.835852 0.129464 6.521131
v 5.382348 0.133003 5.201777
v 6.701706 0.134469 4.655282
v 8.021065 0.133003 5.201777
v 8.567561 0.129464 6.521131
v 8.021065 0.125925 7.840485
v 5.908600 0.127337 7.314235
v 6.701706 0.126456 7.642749
v 5.580084 0.129464 6.521131
v 5.908600 0.131592 5.728027
v 6.701706 0.132473 5.399511
v 7.494813 0.131592 5.728027
v 7.823329 0.129464 6.521131
v 7.494813 0.127337 7.314235
v 6.701706 0.129464 6.521131
v 1.762118 2.813262 2.521423
v 2.052131 2.693135 2.521423
v 1.762118 2.403123 2.521423
v 2.457062 1.856622 2.521423
v 2.304555 1.488440 2.521423
v 1.936373 1.856622 2.521423
v 1.436780 1.164875 2.521423
v 1.116594 1.297500 2.521423
v 1.436780 1.617686 2.521423
v 2.438177 0.598326 4.437376
v 2.298505 0.598326 4.100178
v 1.961307 0.598326 4.437376
v 0.888076 0.598326 4.092467
v 0.743613 0.598326 4.441232
v 1.236842 0.598326 4.441232
v 1.734213 0.598325 5.455368
v 2.107941 0.598325 5.300564
v 1.734213 0.598325 4.926836
v 0.775410 0.934180 7.169945
v 0.898263 0.876199 7.460817
v 1.194857 0.934180 7.169945
v 1.763382 0.807662 7.804643
v 2.049603 0.830839 7.688373
v 1.763382 0.886792 7.407674
v 2.096193 1.104898 6.313513
v 1.740087 1.133734 6.168855
v 1.740087 1.035283 6.662748
v 7.414839 0.573648 7.042381
v 7.573703 0.574677 6.658851
v 7.031308 0.574677 6.658851
v 6.259730 0.573192 7.212587
v 6.526142 0.572896 7.322939
v 6.526142 0.573906 6.946177
v 6.537574 0.577247 5.700810
v 6.236865 0.576913 5.825368
v 6.537574 0.576106 6.126076
vn 0.3835 0.9234 0.0147
vn 0.9237 -0.3816 0.0344
vn -0.3835 -0.9234 -0.0152
vn -0.9236 0.3816 -0.0373
vn 0.9237 0.3816 0.0344
vn 0.3835 -0.9234 0.0147
vn -0.9236 -0.3816 -0.0373
vn -0.3835 0.9234 -0.0152
vn 0.9157 0.3827 0.1224
vn 0.3811 -0.9237 0.0388
vn -0.9094 -0.3825 -0.1631
vn -0.3750 0.9236 -0.0795
vn 0.3811 0.9237 0.0388
vn 0.9157 -0.3827 0.1224
vn -0.3750 -0.9236 -0.0795
vn -0.9094 0.3825 -0.1631
vn 0.9233 -0.3727 -0.0927
vn -0.3075 -0.8704 -0.3845
vn -0.7913 0.3545 -0.4981
vn 0.9233 0.3727 -0.0927
vn 0.4042 -0.8888 -0.2163
vn -0.7913 -0.3545 -0.4981
vn -0.3075 0.8704 -0.3845
vn 0.4042 0.8888 -0.2163
vn -0.0594 0.5212 -0.8514
vn 0.3771 0.5641 -0.7345
vn 0.7354 -0.2503 -0.6297
vn -0.0594 -0.5212 -0.8514
vn -0.3337 0.2060 -0.9199
vn 0.7354 0.2503 -0.6297
vn 0.3771 -0.5641 -0.7345
vn -0.3337 -0.2060 -0.9199
vn 0.5614 0.1179 -0.8191
vn 0.3993 -0.2732 -0.8752
vn 0.0568 -0.1031 -0.9930
vn 0.1910 0.2585 -0.9469
vn 0.3993 0.2732 -0.8752
vn 0.5614 -0.1179 -0.8191
vn 0.1910 -0.2585 -0.9469
vn 0.0568 0.1031 -0.9930
vn -0.3827 0.0000 -0.9239
vn -0.9239 0.0000 0.3827
vn 0.9239 0.0000 0.3827
vn 0.3827 0.0000 -0.9239
vn -0.9239 0.0000 -0.3827
vn -0.3827 0.0000 0.9239
vn 0.3827 0.0000 0.9239
vn 0.9239 0.0000 -0.3827
vn -0.3827 0.1806 -0.9061
vn -0.9239 -0.0748 0.3753
vn 0.9239 -0.0748 0.3753
vn 0.3827 0.1806 -0.9061
vn -0.9239 0.0748 -0.3753
vn -0.3827 -0.1806 0.9061
vn 0.3827 -0.1806 0.9061
vn 0.9239 0.0748 -0.3753
vn -0.3827 0.0025 -0.9239
vn -0.9239 -0.0010 0.3827
vn 0.9239 -0.0010 0.3827
vn 0.3827 0.0025 -0.9239
vn -0.9239 0.0010 -0.3827
vn -0.3827 -0.0025 0.9239
vn 0.3827 -0.0025 0.9239
vn 0.9239 0.0010 -0.3827
vn -0.0000 0.0000 1.0000
vn 0.0000 1.0000 0.0000
vn -0.0000 -1.0000 -0.0000
vn -0.0000 0.9807 0.1955
vn -0.0000 -0.9807 -0.1955
vn -0.0000 1.0000 0.0027
vn -0.0000 -1.0000 -0.0027
usemtl 387E4F
s off
f 8//1 16//1 9//1 1//1
f 6//2 14//2 15//2 7//2
f 4//3 12//3 13//3 5//3
f 2//4 10//4 11//4 3//4
f 7//5 15//5 16//5 8//5
f 5//6 13//6 14//6 6//6
f 3//7 11//7 12//7 4//7
f 1//8 9//8 10//8 2//8
f 15//9 23//9 24//9 16//9
f 13//10 21//10 22//10 14//10
f 11//11 19//11 20//11 12//11
f 9//12 17//12 18//12 10//12
f 16//13 24//13 17//13 9//13
f 14//14 22//14 23//14 15//14
f 12//15 20//15 21//15 13//15
f 10//16 18//16 19//16 11//16
f 22//17 30//17 31//17 23//17
f 20//18 28//18 29//18 21//18
f 18//19 26//19 27//19 19//19
f 23//20 31//20 32//20 24//20
f 21//21 29//21 30//21 22//21
f 19//22 27//22 28//22 20//22
f 17//23 25//23 26//23 18//23
f 24//24 32//24 25//24 17//24
f 25//25 33//25 34//25 26//25
f 32//26 40//26 33//26 25//26
f 30//27 38//27 39//27 31//27
f 28//28 36//28 37//28 29//28
f 26//29 34//29 35//29 27//29
f 31//30 39//30 40//30 32//30
f 29//31 37//31 38//31 30//31
f 27//32 35//32 36//32 28//32
f 39//33 41//33 40//33
f 37//34 41//34 38//34
f 35//35 41//35 36//35
f 33//36 41//36 34//36
f 40//37 41//37 33//37
f 38//38 41//38 39//38
f 36//39 41//39 37//39
f 34//40 41//40 35//40
f 54//41 55//41 72//41 71//41
f 52//42 53//42 70//42 68//42
f 57//43 58//43 75//43 74//43
f 55//44 56//44 73//44 72//44
f 53//45 54//45 71//45 70//45
f 51//46 52//46 68//46 69//46
f 58//47 51//47 69//47 75//47
f 56//48 57//48 74//48 73//48
f 88//49 89//49 106//49 105//49
f 86//50 87//50 104//50 102//50
f 91//51 92//51 109//51 108//51
f 89//52 90//52 107//52 106//52
f 87//53 88//53 105//53 104//53
f 85//54 86//54 102//54 103//54
f 92//55 85//55 103//55 109//55
f 90//56 91//56 108//56 107//56
f 122//57 123//57 140//57 139//57
f 120//58 121//58 138//58 136//58
f 125//59 126//59 143//59 142//59
f 123//60 124//60 141//60 140//60
f 121//61 122//61 139//61 138//61
f 119//62 120//62 136//62 137//62
f 126//63 119//63 137//63 143//63
f 124//64 125//64 142//64 141//64
usemtl 8BC34A
f 1//65 42//65 49//65 8//65
f 7//65 48//65 47//65 6//65
f 5//65 46//65 45//65 4//65
f 3//65 44//65 43//65 2//65
f 8//65 49//65 48//65 7//65
f 6//65 47//65 46//65 5//65
f 4//65 45//65 44//65 3//65
f 2//65 43//65 42//65 1//65
f 49//65 50//65 48//65
f 47//65 50//65 46//65
f 45//65 50//65 44//65
f 43//65 50//65 42//65
f 50//65 49//65 154//65 155//65
f 50//65 47//65 157//65 158//65
f 50//65 45//65 160//65 161//65
f 44//65 50//65 43//65
f 51//66 58//66 66//66 59//66
f 57//66 56//66 64//66 65//66
f 55//66 54//66 62//66 63//66
f 53//66 52//66 60//66 61//66
f 58//66 57//66 65//66 66//66
f 56//66 55//66 63//66 64//66
f 54//66 53//66 61//66 62//66
f 52//66 51//66 59//66 60//66
f 66//66 65//66 67//66
f 64//66 63//66 67//66
f 67//66 62//66 165//66 167//66
f 60//66 59//66 67//66
f 66//66 67//66 170//66 169//66
f 64//66 67//66 164//66 163//66
f 63//66 62//66 67//66
f 61//66 60//66 67//66
f 69//67 77//67 83//67 75//67
f 74//67 82//67 81//67 73//67
f 72//67 80//67 79//67 71//67
f 70//67 78//67 76//67 68//67
f 75//67 83//67 82//67 74//67
f 73//67 81//67 80//67 72//67
f 71//67 79//67 78//67 70//67
f 68//67 76//67 77//67 69//67
f 83//67 84//67 82//67
f 81//67 84//67 80//67
f 79//67 84//67 78//67
f 76//67 84//67 77//67
f 77//67 84//67 83//67
f 82//67 84//67 81//67
f 80//67 84//67 79//67
f 78//67 84//67 76//67
f 85//68 92//68 100//68 93//68
f 91//68 90//68 98//68 99//68
f 89//68 88//68 96//68 97//68
f 87//68 86//68 94//68 95//68
f 92//68 91//68 99//68 100//68
f 90//68 89//68 97//68 98//68
f 88//68 87//68 95//68 96//68
f 86//68 85//68 93//68 94//68
f 100//68 99//68 101//68
f 101//68 98//68 177//68 179//68
f 96//68 95//68 101//68
f 94//68 93//68 101//68
f 100//68 101//68 176//68 175//68
f 99//68 98//68 101//68
f 97//68 96//68 101//68
f 94//68 101//68 173//68 172//68
f 103//69 111//69 117//69 109//69
f 108//69 116//69 115//69 107//69
f 106//69 114//69 113//69 105//69
f 104//69 112//69 110//69 102//69
f 109//69 117//69 116//69 108//69
f 107//69 115//69 114//69 106//69
f 105//69 113//69 112//69 104//69
f 102//69 110//69 111//69 103//69
f 117//69 118//69 116//69
f 115//69 118//69 114//69
f 113//69 118//69 112//69
f 110//69 118//69 111//69
f 111//69 118//69 117//69
f 116//69 118//69 115//69
f 114//69 118//69 113//69
f 112//69 118//69 110//69
f 119//70 126//70 134//70 127//70
f 125//70 124//70 132//70 133//70
f 123//70 122//70 130//70 131//70
f 121//70 120//70 128//70 129//70
f 126//70 125//70 133//70 134//70
f 124//70 123//70 131//70 132//70
f 122//70 121//70 129//70 130//70
f 120//70 119//70 127//70 128//70
f 135//70 134//70 180//70 182//70
f 132//70 131//70 135//70
f 130//70 129//70 135//70
f 135//70 128//70 183//70 185//70
f 127//70 134//70 135//70
f 133//70 132//70 135//70
f 130//70 135//70 188//70 187//70
f 129//70 128//70 135//70
f 137//71 145//71 151//71 143//71
f 142//71 150//71 149//71 141//71
f 140//71 148//71 147//71 139//71
f 138//71 146//71 144//71 136//71
f 143//71 151//71 150//71 142//71
f 141//71 149//71 148//71 140//71
f 139//71 147//71 146//71 138//71
f 136//71 144//71 145//71 137//71
f 151//71 152//71 150//71
f 149//71 152//71 148//71
f 147//71 152//71 146//71
f 144//71 152//71 145//71
f 145//71 152//71 151//71
f 150//71 152//71 149//71
f 148//71 152//71 147//71
f 146//71 152//71 144//71
f 42//65 50//65 155//65 153//65
f 49//65 42//65 153//65 154//65
f 48//65 50//65 158//65 156//65
f 47//65 48//65 156//65 157//65
f 46//65 50//65 161//65 159//65
f 45//65 46//65 159//65 160//65
f 67//66 65//66 162//66 164//66
f 65//66 64//66 163//66 162//66
f 61//66 67//66 167//66 166//66
f 62//66 61//66 166//66 165//66
f 67//66 59//66 168//66 170//66
f 59//66 66//66 169//66 168//66
f 101//68 95//68 171//68 173//68
f 95//68 94//68 172//68 171//68
f 101//68 93//68 174//68 176//68
f 93//68 100//68 175//68 174//68
f 97//68 101//68 179//68 178//68
f 98//68 97//68 178//68 177//68
f 133//70 135//70 182//70 181//70
f 134//70 133//70 181//70 180//70
f 127//70 135//70 185//70 184//70
f 128//70 127//70 184//70 183//70
f 135//70 131//70 186//70 188//70
f 131//70 130//70 187//70 186//70
usemtl FFFFFF
f 153//65 155//65 154//65
f 156//65 158//65 157//65
f 159//65 161//65 160//65
f 162//66 163//66 164//66
f 165//66 166//66 167//66
f 168//66 169//66 170//66
f 171//68 172//68 173//68
f 174//68 175//68 176//68
f 177//68 178//68 179//68
f 180//70 181//70 182//70
f 183//70 184//70 185//70
f 186//70 187//70 188//70
