####################################
# netfabb Wavefront export         #
####################################
mtllib spatula.mtl
v 2.73133 -3.22158 8.15754
v 2.32900 -3.17430 7.81833
v 2.32900 -2.98889 7.85113
v 2.73133 -3.01878 8.09205
v 2.32900 -2.66805 10.70402
v 2.87110 -2.66805 10.70402
v 2.87110 -2.29272 10.58280
v 2.32900 -2.29272 10.58280
v 0.00000 0.22192 19.65253
v 0.37096 0.20425 19.59783
v 0.37096 0.40705 19.53234
v 0.00000 0.42471 19.58704
v 0.00000 -2.65037 10.75877
v 0.28776 -2.65513 10.74402
v 0.28776 -2.27980 10.62281
v 0.00000 -2.27504 10.63756
v -5.14392 -2.05346 11.91360
v -4.00085 -2.82836 9.51422
v -4.00085 -3.03115 9.57971
v -5.49028 -1.31582 14.19763
v -5.14392 -2.25626 11.97909
v -2.93781 -1.51862 14.26312
v -2.87110 -2.66805 10.70402
v -2.87110 -2.29272 10.58280
v -2.93781 -1.14329 14.14190
v -2.95968 -0.09957 17.37369
v -2.95968 -0.47490 17.49490
v -5.49028 -1.51862 14.26312
v -2.73133 -3.01878 8.09205
v -2.73133 -3.22158 8.15754
v 0.28776 -0.44943 17.57376
v 0.00000 -0.43606 17.61518
v 0.00000 -0.06073 17.49396
v 0.28776 -1.51862 14.26312
v 0.28776 -1.14329 14.14190
v 2.32900 -0.48571 17.46143
v 2.32900 -1.51862 14.26312
v 2.32900 -1.14329 14.14190
v 2.32900 -0.11038 17.34022
v 2.90658 0.15604 19.44855
v 5.32814 0.01378 19.00804
v 5.32814 0.21657 18.94254
v 2.90658 0.35884 19.38305
v 0.28776 -0.07410 17.45255
v 2.32900 0.38629 19.46807
v 2.32900 0.18350 19.53356
v 2.95968 -0.47490 17.49490
v 2.95968 -0.09957 17.37369
v -0.28776 -0.07410 17.45255
v -0.37096 0.20425 19.59783
v -0.28776 -2.27980 10.62281
v -0.28776 -2.65513 10.74402
v -0.28776 -0.44943 17.57376
v -2.32900 -0.11038 17.34022
v -2.32900 -0.48571 17.46143
v -2.90658 0.15604 19.44855
v -2.32900 0.18350 19.53356
v -2.32900 0.38629 19.46807
v -0.37096 0.40705 19.53234
v 0.17103 -1.29011 4.70879
v 0.07630 -1.13129 4.78452
v 0.47906 -1.13129 4.73913
v 1.07375 -1.29011 4.70879
v 0.00000 -1.29011 4.70879
v 0.00000 -1.13129 4.78452
v -2.32900 -2.66805 10.70402
v -2.32900 -2.29272 10.58280
v -2.32900 -3.17430 7.81833
v -2.32900 -2.98889 7.85113
v -2.90658 0.35884 19.38305
v -5.32814 0.21657 18.94254
v -5.60383 -0.36565 17.13975
v -5.60383 -0.56845 17.20524
v -5.32814 0.01378 19.00804
v -0.28776 -1.14329 14.14190
v -0.28776 -1.51862 14.26312
v -2.32900 -1.51862 14.26312
v -2.32900 -1.14329 14.14190
v 0.00000 0.59725 19.53132
v -0.37096 0.57958 19.47662
v 0.37096 0.57958 19.47662
v -2.32900 0.55883 19.41235
v -2.90658 0.53137 19.32733
v 2.32900 0.55883 19.41235
v 5.60383 -0.19312 17.08403
v 5.32814 0.38910 18.88682
v 5.49028 -1.14329 14.14191
v 5.60383 -0.36565 17.13975
v 2.90658 0.53137 19.32733
v -2.73133 -2.84625 8.03633
v -2.32900 -2.83116 7.87904
v -4.00085 -2.65582 9.45850
v -0.47906 -1.01661 4.76316
v -1.07375 -1.03789 4.79012
v -1.07375 -0.82331 4.85931
v -0.47906 -0.91904 4.78360
v -5.14392 -1.88093 11.85788
v -5.32814 0.38910 18.88682
v -5.60383 -0.19312 17.08403
v -5.49028 -1.14329 14.14191
v 4.00085 -2.82836 9.51422
v 5.14392 -2.05346 11.91360
v 5.14392 -2.25626 11.97909
v 4.00085 -3.03115 9.57971
v 5.49028 -1.31582 14.19763
v 5.49028 -1.51862 14.26312
v -1.07375 -1.29011 4.70879
v 1.07375 -1.03789 4.79012
v 2.93781 -1.51862 14.26312
v 2.93781 -1.14329 14.14190
v 5.60383 -0.56845 17.20524
v 2.73133 -2.84625 8.03633
v 4.00085 -2.65582 9.45850
v 2.32900 -2.83116 7.87904
v 5.14392 -1.88093 11.85788
v 0.47906 -1.01661 4.76316
v -0.47906 -1.13129 4.73913
v 1.07375 -0.82331 4.85931
v 0.47906 -0.91904 4.78360
v 0.17103 -0.81141 4.86442
v 0.07630 -0.90444 4.73994
v 0.00000 -0.81141 4.86442
v 0.00000 -0.90444 4.73994
v -0.37096 -2.78591 7.88704
v -0.07630 -0.90444 4.73994
v 0.00000 -2.78591 7.88704
v 0.37096 -2.78591 7.88704
v -0.17103 -0.81141 4.86442
v -0.37096 -3.17430 7.81833
v 0.00000 -3.17430 7.81833
v 0.37096 -3.17430 7.81833
v -0.17103 -1.29011 4.70879
v -0.07630 -1.13129 4.78452
v 0.61904 0.28522 -2.58001
v 1.07375 0.45933 -4.55953
v 0.80381 0.63932 -4.53268
v 0.80381 0.88009 -6.11450
v 1.07375 0.43186 -6.14136
v 0.61904 0.40639 -2.55315
v -0.17103 -0.35901 -6.17292
v 0.00000 -0.35901 -6.17292
v 0.00000 0.24778 -4.59110
v 0.17103 0.24778 -4.59110
v -0.17103 0.24778 -4.59110
v -1.07375 0.24778 -4.59110
v -0.80381 -0.09498 -6.17292
v 1.07375 3.26828 -22.67284
v 0.80381 3.71650 -22.64599
v 0.17103 -0.35901 -6.17292
v 0.80381 -0.09498 -6.17292
v 1.07375 0.24778 -4.59110
v -0.80381 0.63932 -4.53268
v -0.80381 0.88009 -6.11450
v -1.07375 0.43186 -6.14136
v -1.07375 0.45933 -4.55953
v -0.80381 3.71650 -22.64599
v -1.07375 3.26828 -22.67284
v -0.61904 0.40639 -2.55315
v -0.61904 0.28522 -2.58001
v 0.00000 3.94633 -22.64599
v 0.17103 3.94633 -22.64599
v 0.17103 3.27109 -22.67284
v 0.00000 3.27109 -22.67284
v -0.17103 3.94633 -22.64599
v -0.17103 3.27109 -22.67284
v 0.17103 0.84299 -4.53268
v 0.00000 0.84299 -4.53268
v 0.00000 0.53286 -2.55315
v 0.09860 0.53286 -2.55315
v -0.09860 0.53286 -2.55315
v -0.17103 0.84299 -4.53268
v 0.00000 1.10991 -6.11451
v 0.17103 1.10991 -6.11451
v 0.80381 2.74143 -22.70440
v 0.61904 0.14279 -2.61157
v 0.17103 2.47741 -22.70440
v -0.61904 0.14279 -2.61157
v 0.09860 0.14279 -2.61157
v 0.00000 0.14279 -2.61157
v -0.09860 0.14279 -2.61157
v -0.17103 2.47741 -22.70440
v -0.17103 1.10991 -6.11451
v 0.00000 2.47741 -22.70440
v -0.80381 2.74143 -22.70440
vn -0.112 0.975 -0.194
vn 0.000 0.977 -0.212
vn 0.000 0.983 -0.183
vn -0.007 0.983 -0.182
vn 0.000 0.952 -0.307
vn 0.000 0.952 -0.307
vn 0.000 0.952 -0.307
vn 0.000 0.952 -0.307
vn 0.000 0.952 -0.307
vn 0.000 0.952 -0.307
vn 0.000 0.952 -0.307
vn 0.000 0.952 -0.307
vn 0.000 0.952 -0.307
vn 0.000 0.952 -0.307
vn -0.022 0.981 -0.195
vn -0.003 0.983 -0.182
vn 0.000 0.952 -0.307
vn 0.000 0.952 -0.307
vn 0.000 0.952 -0.307
vn 0.000 0.952 -0.307
vn 0.000 0.952 -0.307
vn 0.000 0.952 -0.307
vn -0.371 0.817 -0.441
vn 0.060 0.976 -0.209
vn 0.000 0.977 -0.212
vn 0.112 0.975 -0.194
vn 0.007 0.983 -0.182
vn 0.000 0.983 -0.183
vn 0.000 0.952 -0.307
vn 0.000 0.952 -0.307
vn 0.000 0.952 -0.307
vn 0.000 0.952 -0.307
vn 0.000 0.952 -0.307
vn 0.000 0.952 -0.307
vn 0.000 0.952 -0.307
vn 0.000 0.952 -0.307
vn 0.000 0.952 -0.307
vn 0.000 0.952 -0.307
vn 0.003 0.983 -0.182
vn 0.022 0.981 -0.195
vn 0.000 0.952 -0.307
vn 0.000 0.952 -0.307
vn 0.000 0.952 -0.307
vn 0.000 0.952 -0.307
vn 0.000 0.952 -0.307
vn 0.000 0.952 -0.307
vn -0.060 0.976 -0.209
vn 0.371 0.817 -0.441
vn 0.000 0.837 0.547
vn 0.000 0.837 0.547
vn -0.022 0.838 0.546
vn -0.014 0.835 0.550
vn 0.000 0.837 0.547
vn 0.000 0.837 0.547
vn 0.022 0.837 0.547
vn 0.014 0.838 0.546
vn 0.000 0.801 -0.599
vn 0.000 0.801 -0.599
vn -0.007 0.798 -0.602
vn -0.111 0.095 -0.989
vn 0.000 0.801 -0.599
vn 0.000 0.801 -0.599
vn 0.004 0.607 -0.795
vn 0.097 0.760 -0.642
vn 0.000 0.988 0.155
vn 0.000 0.988 0.155
vn -0.233 0.959 0.159
vn -0.303 0.943 0.139
vn 0.000 0.988 0.155
vn 0.000 0.988 0.155
vn 0.234 0.963 0.135
vn 0.303 0.940 0.158
vn 0.337 0.928 0.159
vn 0.337 0.928 0.159
vn 0.000 0.986 0.169
vn 0.000 0.986 0.169
vn 0.000 0.986 0.169
vn 0.000 0.986 0.169
vn -0.337 0.928 0.159
vn -0.337 0.928 0.159
vn 0.000 -0.977 0.212
vn 0.253 -0.953 0.167
vn 0.007 -0.985 0.175
vn 0.000 -0.984 0.175
vn 0.000 -0.952 0.307
vn 0.000 -0.952 0.307
vn 0.000 -0.952 0.307
vn 0.000 -0.952 0.307
vn 0.000 -0.952 0.307
vn 0.000 -0.952 0.307
vn 0.000 -0.952 0.307
vn 0.000 -0.952 0.307
vn 0.000 -0.952 0.307
vn 0.000 -0.952 0.307
vn 0.003 -0.985 0.175
vn 0.000 -0.985 0.173
vn 0.000 -0.952 0.307
vn 0.000 -0.952 0.307
vn 0.000 -0.952 0.307
vn 0.000 -0.952 0.307
vn 0.000 -0.952 0.307
vn 0.000 -0.952 0.307
vn -0.060 -0.976 0.209
vn 0.371 -0.817 0.441
vn -0.253 -0.953 0.167
vn 0.000 -0.977 0.212
vn 0.000 -0.984 0.175
vn -0.007 -0.985 0.175
vn 0.000 -0.952 0.307
vn 0.000 -0.952 0.307
vn 0.000 -0.952 0.307
vn 0.000 -0.952 0.307
vn 0.000 -0.952 0.307
vn 0.000 -0.952 0.307
vn 0.000 -0.952 0.307
vn 0.000 -0.952 0.307
vn 0.000 -0.952 0.307
vn 0.000 -0.952 0.307
vn 0.000 -0.985 0.173
vn -0.003 -0.985 0.175
vn 0.000 -0.952 0.307
vn 0.000 -0.952 0.307
vn 0.000 -0.952 0.307
vn 0.000 -0.952 0.307
vn 0.000 -0.952 0.307
vn 0.000 -0.952 0.307
vn -0.371 -0.817 0.441
vn 0.060 -0.976 0.209
vn 0.000 -0.855 -0.518
vn 0.000 -0.855 -0.518
vn 0.000 -0.855 -0.518
vn 0.000 -0.855 -0.518
vn 0.000 -0.855 -0.518
vn 0.000 -0.855 -0.518
vn 0.000 -0.855 -0.518
vn 0.000 -0.855 -0.518
vn 0.000 0.430 -0.903
vn 0.000 0.430 -0.903
vn 0.109 -0.224 -0.969
vn 0.000 0.430 -0.903
vn 0.000 0.430 -0.903
vn 0.000 0.430 -0.903
vn -0.104 0.377 -0.920
vn 0.000 0.188 -0.982
vn 0.000 -0.999 -0.053
vn 0.000 -0.999 -0.053
vn 0.000 -0.999 -0.053
vn 0.000 -0.999 -0.053
vn 0.000 -0.999 -0.053
vn 0.000 -0.999 -0.053
vn 0.000 -0.999 -0.053
vn 0.000 -0.999 -0.053
vn 0.380 -0.912 -0.156
vn 0.380 -0.912 -0.156
vn 0.000 -0.986 -0.169
vn 0.000 -0.986 -0.169
vn 0.000 -0.986 -0.169
vn 0.000 -0.986 -0.169
vn -0.380 -0.912 -0.156
vn -0.380 -0.912 -0.156
vn -0.608 -0.244 -0.755
vn -0.516 0.149 -0.843
vn 0.000 0.307 0.952
vn 0.000 0.307 0.952
vn -0.054 0.307 0.950
vn -0.054 0.307 0.950
vn 0.150 -0.304 -0.941
vn 0.150 -0.304 -0.941
vn -0.153 0.304 0.940
vn -0.153 0.304 0.940
vn -0.056 -0.307 -0.950
vn -0.056 -0.307 -0.950
vn -0.153 0.304 0.940
vn -0.153 0.304 0.940
vn -0.034 0.307 0.951
vn -0.034 0.307 0.951
vn -1.000 0.000 0.000
vn -1.000 0.000 0.000
vn 1.000 0.000 0.000
vn 1.000 0.000 0.000
vn -1.000 0.000 0.000
vn -1.000 0.000 0.000
vn 1.000 0.000 0.000
vn 1.000 0.000 0.000
vn -0.990 0.044 0.137
vn -0.990 0.044 0.137
vn -0.188 0.302 0.935
vn -0.188 0.302 0.935
vn -0.999 -0.011 -0.035
vn -0.999 -0.011 -0.035
vn 1.000 0.002 0.006
vn 1.000 0.002 0.006
vn -0.990 -0.044 -0.136
vn -0.990 -0.044 -0.136
vn 1.000 0.005 0.017
vn 1.000 0.005 0.017
vn -0.744 -0.205 -0.636
vn -0.744 -0.205 -0.636
vn -0.911 -0.127 -0.393
vn -0.911 -0.127 -0.393
vn 0.000 0.307 0.952
vn 0.000 0.307 0.952
vn 0.648 0.133 -0.750
vn 0.480 -0.270 -0.835
vn 0.054 0.307 0.950
vn 0.054 0.307 0.950
vn 0.153 0.304 0.940
vn 0.153 0.304 0.940
vn -0.150 -0.304 -0.941
vn -0.150 -0.304 -0.941
vn 0.153 0.304 0.940
vn 0.153 0.304 0.940
vn 0.056 -0.307 -0.950
vn 0.056 -0.307 -0.950
vn 0.034 0.307 0.951
vn 0.034 0.307 0.951
vn -1.000 0.000 0.000
vn -1.000 0.000 0.000
vn 1.000 0.000 0.000
vn 1.000 0.000 0.000
vn -1.000 0.000 0.000
vn -1.000 0.000 0.000
vn 1.000 0.000 0.000
vn 1.000 0.000 0.000
vn 0.188 0.302 0.935
vn 0.188 0.302 0.935
vn 0.990 0.044 0.137
vn 0.990 0.044 0.137
vn -1.000 0.002 0.006
vn -1.000 0.002 0.006
vn 0.999 -0.011 -0.035
vn 0.999 -0.011 -0.035
vn -1.000 0.005 0.017
vn -1.000 0.005 0.017
vn 0.990 -0.044 -0.136
vn 0.990 -0.044 -0.136
vn 0.911 -0.127 -0.393
vn 0.911 -0.127 -0.393
vn 0.744 -0.205 -0.636
vn 0.744 -0.205 -0.636
vn -0.938 0.060 -0.342
vn -0.942 0.103 -0.320
vn 0.942 0.103 -0.318
vn 0.937 0.061 -0.345
vn -0.033 0.307 -0.951
vn -0.052 0.205 -0.977
vn 0.005 0.205 -0.979
vn 0.054 0.306 -0.950
vn -0.974 -0.049 0.221
vn -0.975 -0.033 0.221
vn 0.974 -0.033 0.222
vn 0.974 -0.049 0.220
vn 0.889 -0.451 -0.077
vn 0.889 -0.451 -0.077
vn -0.017 0.040 -0.999
vn 0.000 0.060 -0.998
vn 0.000 0.040 -0.999
vn 0.000 0.040 -0.999
vn 0.000 0.040 -0.999
vn 0.000 0.040 -0.999
vn 0.032 0.076 -0.997
vn 0.000 0.040 -0.999
vn -0.889 -0.451 -0.077
vn -0.889 -0.451 -0.077
vn 0.016 0.984 0.178
vn 0.232 0.954 0.189
vn 0.000 0.981 0.193
vn 0.000 0.981 0.193
vn 0.000 0.981 0.193
vn 0.000 0.981 0.193
vn -0.015 0.981 0.193
vn -0.232 0.956 0.177
vn -1.000 -0.004 0.018
vn -1.000 -0.004 0.018
vn 0.019 -0.985 -0.171
vn 0.000 -0.985 -0.170
vn 0.000 -0.985 -0.170
vn 0.000 -0.985 -0.170
vn 0.000 -0.985 -0.170
vn 0.000 -0.985 -0.170
vn -0.019 -0.985 -0.170
vn 0.000 -0.985 -0.171
vn 1.000 -0.004 0.018
vn 1.000 -0.004 0.018
vn 0.890 -0.453 -0.054
vn 1.000 0.000 0.000
vn 0.303 0.942 0.143
vn 0.337 0.928 0.157
vn 0.000 0.986 0.166
vn 0.000 0.986 0.166
vn 0.000 0.986 0.166
vn 0.000 0.986 0.166
vn -0.303 0.940 0.159
vn -0.338 0.930 0.142
vn -0.984 0.026 -0.174
vn -0.890 -0.456 0.008
vn 0.000 -0.977 0.212
vn -0.363 -0.870 0.334
vn 0.000 -0.934 0.358
vn 0.000 -0.934 0.358
vn 0.000 -0.934 0.358
vn 0.000 -0.934 0.358
vn 0.000 -0.934 0.358
vn 0.382 -0.915 0.133
vn 0.856 0.510 0.088
vn 0.856 0.510 0.088
vn 0.856 0.516 -0.009
vn 0.559 0.820 0.125
vn 0.557 0.806 0.199
vn 0.996 -0.020 0.091
vn 1.000 -0.004 0.018
vn 1.000 -0.004 0.018
vn 0.052 0.205 -0.977
vn 0.072 0.306 -0.949
vn 0.942 0.103 -0.320
vn 0.935 0.062 -0.348
vn 0.516 0.149 -0.843
vn 0.339 -0.289 -0.895
vn 0.744 -0.205 -0.636
vn 0.744 -0.205 -0.636
vn 0.911 -0.127 -0.393
vn 0.911 -0.127 -0.393
vn 0.990 -0.044 -0.136
vn 0.990 -0.044 -0.136
vn 0.999 -0.011 -0.035
vn 0.999 -0.011 -0.035
vn 0.990 0.044 0.137
vn 0.990 0.044 0.137
vn 0.188 0.302 0.935
vn 0.188 0.302 0.935
vn 0.153 0.304 0.940
vn 0.153 0.304 0.940
vn 0.034 0.307 0.951
vn 0.034 0.307 0.951
vn 0.153 0.304 0.940
vn 0.153 0.304 0.940
vn -0.153 0.304 0.940
vn -0.153 0.304 0.940
vn -0.034 0.307 0.951
vn -0.034 0.307 0.951
vn -0.153 0.304 0.940
vn -0.153 0.304 0.940
vn -0.188 0.302 0.935
vn -0.188 0.302 0.935
vn -0.990 0.044 0.137
vn -0.990 0.044 0.137
vn -0.999 -0.011 -0.035
vn -0.999 -0.011 -0.035
vn -0.990 -0.044 -0.136
vn -0.990 -0.044 -0.136
vn -0.911 -0.127 -0.393
vn -0.911 -0.127 -0.393
vn -0.744 -0.205 -0.636
vn -0.744 -0.205 -0.636
vn -0.480 -0.270 -0.835
vn -0.365 0.162 -0.917
vn -0.937 0.061 -0.345
vn -0.941 0.104 -0.322
vn -0.054 0.306 -0.950
vn -0.091 0.204 -0.975
vn -1.000 -0.004 0.018
vn -1.000 -0.004 0.018
vn -0.974 -0.049 0.220
vn -0.559 0.816 0.148
vn -0.554 0.833 -0.014
vn -0.856 0.511 0.078
vn -0.856 0.510 0.088
vn -0.856 0.510 0.088
vn 0.000 0.060 -0.998
vn -0.014 0.040 -0.999
vn 0.000 0.040 -0.999
vn 0.000 0.040 -0.999
vn 0.000 0.040 -0.999
vn 0.000 0.040 -0.999
vn 0.000 0.040 -0.999
vn 0.028 0.076 -0.997
usemtl material_1
f 1//203 2//203 3//203
f 3//204 4//204 1//204
f 5//201 6//201 7//201
f 7//202 8//202 5//202
f 9//207 10//207 11//207
f 11//208 12//208 9//208
f 13//205 14//205 15//205
f 15//206 16//206 13//206
f 17//200 18//200 19//200
f 20//194 17//194 21//194
f 22//195 23//195 24//195
f 25//192 26//192 27//192
f 21//193 28//193 20//193
f 18//198 29//198 30//198
f 19//199 21//199 17//199
f 24//196 25//196 22//196
f 30//197 19//197 18//197
f 31//209 32//209 33//209
f 14//221 34//221 35//221
f 35//222 15//222 14//222
f 36//219 37//219 38//219
f 38//220 39//220 36//220
f 40//225 41//225 42//225
f 42//226 43//226 40//226
f 37//223 5//223 8//223
f 8//224 38//224 37//224
f 44//218 35//218 34//218
f 43//212 45//212 46//212
f 47//213 36//213 39//213
f 33//210 44//210 31//210
f 46//211 40//211 43//211
f 45//216 11//216 10//216
f 34//217 31//217 44//217
f 39//214 48//214 47//214
f 10//215 46//215 45//215
f 49//168 33//168 32//168
f 50//169 9//169 12//169
f 16//166 51//166 52//166
f 32//167 53//167 49//167
f 26//172 54//172 55//172
f 56//173 57//173 58//173
f 12//170 59//170 50//170
f 55//171 27//171 26//171
f 52//165 13//165 16//165
f 60//143 61//143 62//143
f 62//144 63//144 60//144
f 64//141 65//141 61//141
f 61//142 60//142 64//142
f 23//163 66//163 67//163
f 67//164 24//164 23//164
f 68//161 30//161 29//161
f 29//162 69//162 68//162
f 58//174 70//174 56//174
f 71//186 72//186 73//186
f 74//187 56//187 70//187
f 51//184 75//184 76//184
f 73//185 74//185 71//185
f 72//190 20//190 28//190
f 27//191 22//191 25//191
f 70//188 71//188 74//188
f 28//189 73//189 72//189
f 76//183 52//183 51//183
f 77//177 55//177 54//177
f 54//178 78//178 77//178
f 57//175 50//175 59//175
f 59//176 58//176 57//176
f 66//181 77//181 78//181
f 78//182 67//182 66//182
f 53//179 76//179 75//179
f 75//180 49//180 53//180
f 59//337 12//337 79//337
f 79//338 80//338 59//338
f 12//335 11//335 81//335
f 81//336 79//336 12//336
f 70//341 58//341 82//341
f 82//342 83//342 70//342
f 58//339 59//339 80//339
f 80//340 82//340 58//340
f 84//334 81//334 11//334
f 85//328 86//328 42//328
f 43//329 42//329 86//329
f 87//326 85//326 88//326
f 42//327 88//327 85//327
f 89//332 84//332 45//332
f 11//333 45//333 84//333
f 86//330 89//330 43//330
f 45//331 43//331 89//331
f 71//343 70//343 83//343
f 69//355 29//355 90//355
f 90//356 91//356 69//356
f 29//353 18//353 92//353
f 92//354 90//354 29//354
f 93//359 94//359 95//359
f 95//360 96//360 93//360
f 94//357 69//357 91//357
f 91//358 95//358 94//358
f 97//352 92//352 18//352
f 98//346 99//346 72//346
f 20//347 72//347 99//347
f 83//344 98//344 71//344
f 72//345 71//345 98//345
f 100//350 97//350 17//350
f 18//351 17//351 97//351
f 99//348 100//348 20//348
f 17//349 20//349 100//349
f 101//238 102//238 103//238
f 104//239 1//239 4//239
f 102//236 105//236 106//236
f 103//237 104//237 101//237
f 69//242 94//242 107//242
f 2//243 63//243 108//243
f 4//240 101//240 104//240
f 107//241 68//241 69//241
f 106//235 103//235 102//235
f 109//229 47//229 48//229
f 48//230 110//230 109//230
f 41//227 111//227 88//227
f 88//228 42//228 41//228
f 6//233 109//233 110//233
f 110//234 7//234 6//234
f 111//231 106//231 105//231
f 105//232 88//232 111//232
f 108//244 3//244 2//244
f 112//320 113//320 101//320
f 102//321 101//321 113//321
f 114//318 112//318 4//318
f 101//319 4//319 112//319
f 115//324 87//324 105//324
f 88//325 105//325 87//325
f 113//322 115//322 102//322
f 105//323 102//323 115//323
f 4//317 3//317 114//317
f 63//247 62//247 116//247
f 116//248 108//248 63//248
f 117//245 107//245 94//245
f 94//246 93//246 117//246
f 3//315 108//315 118//315
f 118//316 114//316 3//316
f 108//313 116//313 119//313
f 119//314 118//314 108//314
f 120//63 118//63 119//63
f 119//64 121//64 120//64
f 122//61 120//61 121//61
f 121//62 123//62 122//62
f 78//14 75//14 51//14
f 51//13 67//13 78//13
f 67//16 51//16 124//16
f 124//15 91//15 67//15
f 125//60 96//60 95//60
f 120//54 122//54 126//54
f 127//55 114//55 118//55
f 128//52 95//52 91//52
f 126//53 127//53 120//53
f 123//58 125//58 128//58
f 95//59 128//59 125//59
f 118//56 120//56 127//56
f 128//57 122//57 123//57
f 54//12 49//12 75//12
f 66//81 23//81 30//81
f 30//82 68//82 66//82
f 90//2 24//2 67//2
f 67//1 91//1 90//1
f 9//85 50//85 53//85
f 53//86 32//86 9//86
f 13//83 52//83 129//83
f 129//84 130//84 13//84
f 16//3 126//3 124//3
f 80//9 49//9 54//9
f 26//8 83//8 82//8
f 75//11 78//11 54//11
f 54//10 82//10 80//10
f 79//5 33//5 49//5
f 124//4 51//4 16//4
f 82//7 54//7 26//7
f 49//6 80//6 79//6
f 15//37 35//37 38//37
f 39//36 38//36 35//36
f 127//39 15//39 8//39
f 38//38 8//38 15//38
f 81//33 84//33 39//33
f 48//32 39//32 84//32
f 35//35 44//35 39//35
f 39//34 44//34 81//34
f 8//40 114//40 127//40
f 87//46 115//46 7//46
f 7//45 110//45 87//45
f 115//48 113//48 112//48
f 112//47 7//47 115//47
f 85//42 48//42 89//42
f 89//41 86//41 85//41
f 85//44 87//44 110//44
f 110//43 48//43 85//43
f 84//31 89//31 48//31
f 25//19 100//19 99//19
f 99//18 98//18 83//18
f 24//21 97//21 100//21
f 99//20 26//20 25//20
f 122//50 128//50 124//50
f 91//51 124//51 128//51
f 83//17 26//17 99//17
f 124//49 126//49 122//49
f 100//22 25//22 24//22
f 127//28 126//28 16//28
f 16//27 15//27 127//27
f 44//30 33//30 79//30
f 79//29 81//29 44//29
f 97//24 24//24 90//24
f 90//23 92//23 97//23
f 112//26 114//26 8//26
f 8//25 7//25 112//25
f 109//123 106//123 111//123
f 111//122 41//122 40//122
f 40//121 47//121 111//121
f 106//126 109//126 6//126
f 6//125 103//125 106//125
f 111//124 47//124 109//124
f 5//120 14//120 131//120
f 36//116 31//116 34//116
f 34//115 37//115 36//115
f 36//114 46//114 10//114
f 131//119 2//119 5//119
f 37//118 34//118 14//118
f 14//117 5//117 37//117
f 1//127 104//127 103//127
f 132//137 133//137 65//137
f 63//136 2//136 131//136
f 131//135 60//135 63//135
f 133//140 132//140 107//140
f 107//139 117//139 133//139
f 65//138 64//138 132//138
f 60//134 131//134 130//134
f 64//130 130//130 129//130
f 129//129 132//129 64//129
f 103//128 6//128 1//128
f 130//133 64//133 60//133
f 132//132 129//132 68//132
f 68//131 107//131 132//131
f 66//96 68//96 129//96
f 129//95 52//95 66//95
f 77//94 66//94 52//94
f 22//99 27//99 73//99
f 73//98 27//98 56//98
f 56//97 74//97 73//97
f 52//93 76//93 77//93
f 50//89 57//89 55//89
f 27//88 55//88 57//88
f 57//87 56//87 27//87
f 55//92 77//92 76//92
f 76//91 53//91 55//91
f 55//90 53//90 50//90
f 73//100 28//100 22//100
f 10//113 31//113 36//113
f 9//109 32//109 31//109
f 131//108 14//108 13//108
f 31//110 10//110 9//110
f 46//111 36//111 47//111
f 47//112 40//112 46//112
f 13//107 130//107 131//107
f 30//103 23//103 21//103
f 28//102 21//102 23//102
f 23//101 22//101 28//101
f 1//106 6//106 5//106
f 5//105 2//105 1//105
f 21//104 19//104 30//104
usemtl material_2
f 134//309 135//309 136//309
f 137//308 136//308 135//308
f 135//307 138//307 137//307
f 134//312 139//312 119//312
f 119//311 116//311 134//311
f 136//310 139//310 134//310
f 140//300 141//300 142//300
f 143//301 142//301 141//301
f 142//299 144//299 140//299
f 144//297 145//297 146//297
f 146//298 140//298 144//298
f 138//305 147//305 148//305
f 148//306 137//306 138//306
f 149//304 150//304 151//304
f 141//302 149//302 143//302
f 151//303 143//303 149//303
f 152//366 153//366 154//366
f 154//365 155//365 152//365
f 153//368 156//368 157//368
f 157//367 154//367 153//367
f 96//362 158//362 159//362
f 159//361 93//361 96//361
f 158//364 152//364 155//364
f 155//363 159//363 158//363
f 160//374 161//374 162//374
f 162//373 163//373 160//373
f 161//376 148//376 147//376
f 147//375 162//375 161//375
f 156//370 164//370 165//370
f 165//369 157//369 156//369
f 164//372 160//372 163//372
f 163//371 165//371 164//371
f 166//70 167//70 168//70
f 169//71 139//71 136//71
f 168//69 169//69 166//69
f 158//67 170//67 171//67
f 171//68 152//68 158//68
f 172//75 173//75 161//75
f 161//76 160//76 172//76
f 148//74 161//74 173//74
f 136//72 166//72 169//72
f 173//73 137//73 148//73
f 150//253 174//253 147//253
f 135//252 134//252 175//252
f 147//254 138//254 150//254
f 162//256 147//256 174//256
f 174//255 176//255 162//255
f 170//65 168//65 167//65
f 167//66 171//66 170//66
f 145//249 177//249 159//249
f 175//251 151//251 135//251
f 159//250 155//250 145//250
f 178//151 143//151 151//151
f 143//150 178//150 179//150
f 151//152 175//152 178//152
f 174//154 150//154 149//154
f 149//153 176//153 174//153
f 142//146 179//146 180//146
f 180//145 144//145 142//145
f 177//147 145//147 144//147
f 179//149 142//149 143//149
f 144//148 180//148 177//148
f 164//80 156//80 153//80
f 181//160 140//160 146//160
f 153//79 182//79 164//79
f 182//77 172//77 160//77
f 160//78 164//78 182//78
f 176//156 149//156 141//156
f 141//155 183//155 176//155
f 140//157 181//157 183//157
f 146//159 184//159 181//159
f 183//158 141//158 140//158
f 116//283 62//283 175//283
f 178//282 175//282 62//282
f 175//284 134//284 116//284
f 138//286 135//286 151//286
f 151//285 150//285 138//285
f 180//278 179//278 65//278
f 65//277 133//277 180//277
f 61//279 65//279 179//279
f 62//281 61//281 178//281
f 179//280 178//280 61//280
f 152//293 171//293 182//293
f 172//292 182//292 171//292
f 182//294 153//294 152//294
f 155//296 154//296 146//296
f 146//295 145//295 155//295
f 137//288 173//288 166//288
f 166//287 136//287 137//287
f 167//289 166//289 173//289
f 171//291 167//291 172//291
f 173//290 172//290 167//290
f 184//263 146//263 154//263
f 157//262 165//262 181//262
f 154//264 157//264 184//264
f 139//266 169//266 121//266
f 121//265 119//265 139//265
f 163//258 162//258 176//258
f 176//257 183//257 163//257
f 183//259 181//259 165//259
f 181//261 184//261 157//261
f 165//260 163//260 183//260
f 177//273 117//273 93//273
f 170//272 158//272 96//272
f 93//274 159//274 177//274
f 177//276 180//276 133//276
f 133//275 117//275 177//275
f 169//268 168//268 123//268
f 123//267 121//267 169//267
f 125//269 123//269 168//269
f 96//271 125//271 170//271
f 168//270 170//270 125//270
####################################
